<svg width="25" height="24" viewBox="0 0 25 24" fill="none" xmlns="http://www.w3.org/2000/svg">
<g clip-path="url(#clip0_495_51771)">
<path d="M12.3478 0.740845C7.43822 0.740845 3.27822 3.88896 1.74164 8.23635H22.9539C21.4173 3.88896 17.2573 0.740845 12.3478 0.740845Z" fill="#3E4347"></path>
<path d="M12.3478 23.2273C17.2573 23.2273 21.4173 20.1167 22.9539 15.7318H1.74164C3.27822 20.1167 7.43822 23.2273 12.3478 23.2273Z" fill="#FFE62E"></path>
<path d="M1.74277 8.23621C1.33052 9.39801 1.10565 10.6722 1.10565 11.984C1.10565 13.2957 1.33052 14.5699 1.74277 15.7317H22.955C23.3673 14.5699 23.5922 13.2957 23.5922 11.984C23.5922 10.6722 23.3673 9.39801 22.955 8.23621H1.74277Z" fill="#ED4C5C"></path>
</g>
<defs>
<clipPath id="clip0_495_51771">
<rect width="23.9856" height="23.9856" fill="white" transform="translate(0.393311 -0.00964355)"></rect>
</clipPath>
</defs>
</svg>